<svg xmlns="http://www.w3.org/2000/svg" viewBox="0 0 252.01 82.22"><defs><style>.cls-1{fill:#fff;}</style></defs><g id="Layer_2" data-name="Layer 2"><g id="Layer_1-2" data-name="Layer 1"><path class="cls-1" d="M71,0H7.26C3.25,0,0,3.62,0,8.09v66c0,4.47,3.25,8.1,7.26,8.1H71c4,0,7.26-3.63,7.26-8.1v-66C78.29,3.62,75,0,71,0ZM67.35,68.36H56V24.14h-.16L45,68.36H33.07L22.44,24.14h-.15V68.36H10.94V15.46H28.69L39.23,57.15h.16L49.76,15.46H67.35Z"/><path class="cls-1" d="M122,17.68V44.3h-6V36.49c0-4.27,0-8.3.23-12.86-.56,2-1.09,3.77-1.8,6.05l-4.6,14.62h-5.16L100,29.68c-.71-2.28-1.24-4-1.76-6,.15,4.56.19,8.56.19,12.83V44.3h-6V17.68h9.46l3.51,11.44c.64,2.13,1.27,4.45,1.83,6.62.56-2.21,1.2-4.6,1.8-6.73l3.47-11.33Z"/><path class="cls-1" d="M124.67,31c0-8.41,5.5-13.91,13.65-13.91S152,22.58,152,31,146.43,44.9,138.32,44.9,124.67,39.4,124.67,31Zm20.75,0c0-5.27-2.84-8.41-7.1-8.41s-7.07,3.14-7.07,8.41,2.81,8.41,7.07,8.41S145.42,36.26,145.42,31Z"/><path class="cls-1" d="M154.24,34.17V17.68h6.32V34.24c0,3.48,2,5.2,5.24,5.2s5.27-1.72,5.27-5.2V17.68h6.32V34.17c0,7.07-4.64,10.73-11.59,10.73C159.1,44.9,154.24,41.24,154.24,34.17Z"/><path class="cls-1" d="M179.64,35.55h6.13c.07,3.63,2.47,4.41,5.76,4.41,3,0,4.52-1.08,4.52-3.06,0-1.8-1.12-2.51-4.78-3.18l-2.17-.41c-5.61-1-8.9-3.52-8.9-8.34,0-4.52,3.44-7.89,10.39-7.89,7.26,0,10.88,3.22,11.11,8.68h-6c-.14-2.47-1.45-3.74-5-3.74-2.77,0-4.08,1-4.08,2.69,0,1.87,1.23,2.62,4.52,3.25l2.25.41c6.39,1.16,9.19,3.59,9.19,8.12,0,5.6-4.48,8.41-11.29,8.41C183.71,44.9,179.68,41.31,179.64,35.55Z"/><path class="cls-1" d="M211.54,23.33v4.82h12.75v5.31H211.54v5.2h14V44.3H205.22V17.68h20.34v5.65Z"/><path class="cls-1" d="M251.34,44.3h-6.5a6.41,6.41,0,0,1-.64-2.92l-.11-3c-.11-3.21-1.53-3.88-3.93-3.88H235V44.3h-6.31V17.68h12.6c6.69,0,9.64,3.4,9.64,7.7a6.45,6.45,0,0,1-4.3,6.32c3.07,1,3.67,3.18,3.78,6l.19,3.74A5.86,5.86,0,0,0,251.34,44.3ZM240.58,29.76c2.43,0,3.85-1.24,3.85-3.55s-1.42-3.48-4-3.48H235v7Z"/><path class="cls-1" d="M96.46,53v2.39h6.91v3.23H96.46v2.75h7.6V64.8H92.44V49.65h11.62V53Z"/><path class="cls-1" d="M117.31,61.35V64.8H106.5V49.65h4.24v11.7Z"/><path class="cls-1" d="M123.39,53v2.39h6.91v3.23h-6.91v2.75H131V64.8H119.37V49.65H131V53Z"/><path class="cls-1" d="M133.08,57.28c0-4.85,3.1-7.93,7.53-7.93,3.95,0,6.36,1.92,7.18,5.27l-4,.45a3,3,0,0,0-3.08-2.36c-2.35,0-3.49,1.69-3.49,4.49s1.24,4.56,3.41,4.56a3,3,0,0,0,3.24-2.54l3.89.45a7,7,0,0,1-7.26,5.46C136.14,65.13,133.08,62.08,133.08,57.28Z"/><path class="cls-1" d="M162.39,53h-4.47V64.8h-4V53h-4.46V49.65h13Z"/><path class="cls-1" d="M177.94,64.8h-3.82l-.46-3.31c-.23-1.8-.71-2.23-2.29-2.23h-2.64V64.8h-4V49.65h8.52c2.9,0,4.48,1.48,4.48,3.88,0,2-1.29,3.32-3.38,3.95a3.32,3.32,0,0,1,2.84,2.94ZM173.5,54.28c0-1-.73-1.49-2.07-1.49h-2.7v3.35H171C172.6,56.14,173.5,55.51,173.5,54.28Z"/><path class="cls-1" d="M179.9,57.22c0-4.79,3.11-7.89,7.77-7.89s7.75,3.1,7.75,7.89-3.11,7.89-7.75,7.89S179.9,62.06,179.9,57.22Zm11.36,0c0-3.21-1.5-4.57-3.59-4.57s-3.61,1.36-3.61,4.57,1.52,4.58,3.61,4.58S191.26,60.44,191.26,57.22Z"/><path class="cls-1" d="M212.71,49.65V64.8H207l-5.31-11.52V64.8H198V49.65h5.8L209,61.11V49.65Z"/><path class="cls-1" d="M215.59,49.65h4V64.8h-4Z"/><path class="cls-1" d="M222.16,57.28c0-4.85,3.1-7.93,7.54-7.93,3.94,0,6.35,1.92,7.18,5.27l-4,.45a3,3,0,0,0-3.08-2.36c-2.34,0-3.49,1.69-3.49,4.49s1.25,4.56,3.42,4.56A3,3,0,0,0,233,59.22l3.89.45a7,7,0,0,1-7.26,5.46C225.22,65.13,222.16,62.08,222.16,57.28Z"/><path class="cls-1" d="M238.52,60.85l4-.49c.32,1.22,1.19,1.8,2.86,1.8s2.57-.58,2.57-1.6c0-.85-.6-1.27-2.08-1.56l-2.14-.42C240.71,58,239,56.65,239,54c0-3,2.27-4.66,6.41-4.66,3.69,0,5.7,1.28,6.43,4l-3.84.47c-.38-1.08-1.19-1.56-2.65-1.56s-2.27.48-2.27,1.44c0,.79.48,1.13,1.82,1.4l1.75.38c3.71.73,5.41,2,5.41,4.59,0,3.3-2.58,5.11-6.87,5.11C241.4,65.11,239.13,63.73,238.52,60.85Z"/></g></g></svg>
